# xmcd
#
# Track frame offsets: 
#        150
#        17277
#        34564
#        55473
#        71312
#        90450
#        112780
#        132003
#        150132
#        164677
#
# Disc length: 2468 seconds
#
# Revision: 0
# Processed by: cddbd v1.5.2PL0 Copyright (c) Steve Scherf et al.
# Submitted via: ExactAudioCopy v1.2
#
DISCID=6609a20a
DTITLE=Johnny Rawls - Waiting for the Train
DYEAR=2017
DGENRE=Blues
TTITLE0=Rain Keep Falling ('Til I'm Free)
TTITLE1=Las Vegas
TTITLE2=Waiting for the Train
TTITLE3=I'm in Love
TTITLE4=California Shake
TTITLE5=Blackjack Was a Gambler
TTITLE6=I Shall Be Released
TTITLE7=Turning Point
TTITLE8=We Did It
TTITLE9=Stay With Me
EXTD=
EXTT0=
EXTT1=
EXTT2=
EXTT3=
EXTT4=
EXTT5=
EXTT6=
EXTT7=
EXTT8=
EXTT9=
PLAYORDER=
